<svg xmlns="http://www.w3.org/2000/svg" xmlns:xlink="http://www.w3.org/1999/xlink" width="83" height="84" version="1.1" viewBox="0 0 83 84"><title>OAM ohm icon</title><desc>Created with Sketch.</desc><defs><polygon id="path-1" points="16.818 58.48 14.166 50.682 .381 44.142 .381 31.718 1.948 23.215 14.166 10.47 26.289 .5 43.614 .5 54.344 1.82 67.395 10.47 74.037 23.215 77.479 31.718 77.479 44.142 77.479 52.94 65.946 52.94 64.33 58.48 72.192 58.48 70.696 64.978 65.946 64.978 52.99 73.122 41.803 76.852 26.289 74.431 14.166 64.978 8.361 58.48"/></defs><g id="Page-1" fill="none" fill-rule="evenodd" stroke="none" stroke-width="1"><g id="mockup-website]" transform="translate(-60.000000, -674.000000)"><g id="sidebar" transform="translate(27.000000, 24.000000)"><g id="OAM-ohm-icon" transform="translate(33.000000, 650.492188)"><g id="Group" transform="translate(0.500000, 4.000000)"><mask id="mask-2" fill="#fff"><use xlink:href="#path-1"/></mask><circle id="Oval-2" cx="41" cy="38" r="22" fill="#DDE7F5" fill-rule="nonzero" mask="url(#mask-2)"/><rect id="Rectangle-4" width="55" height="12" x="13" y="63" fill="#DDE7F5" fill-rule="nonzero" mask="url(#mask-2)"/><rect id="Rectangle-5" width="23" height="15" x="29" y="52" fill="#DDE7F5" fill-rule="nonzero" mask="url(#mask-2)"/><path id="Shape" fill="#2681D6" fill-rule="nonzero" stroke="#2681D6" stroke-width="3" d="M71.8148148,55.7427274 C71.1594074,55.7427274 70.6296296,56.274839 70.6296296,56.9331336 L70.6296296,60.5043524 L55.258963,60.5043524 L55.2293333,58.2473421 C61.8391111,53.5892824 65.7774815,46.0159178 65.7774815,37.885443 C65.7774815,24.16363 54.6616296,13 41,13 C27.3383704,13 16.2225185,24.16363 16.2225185,37.885443 C16.2225185,45.975444 20.1537778,53.5845208 26.741037,58.2390093 C26.747358,58.2437709 26.747358,58.9992821 26.741037,60.5055428 L11.3703704,60.5055428 L11.3703704,56.934324 C11.3703704,56.2760294 10.8405926,55.7439178 10.1851852,55.7439178 C9.52977778,55.7439178 9,56.2760294 9,56.934324 L9,62.8863554 L29.0805926,62.8863554 L29.1481481,57.7188018 C29.1540741,57.2128791 28.8423704,56.781952 28.4002963,56.6045815 C28.3220741,56.4855409 28.2272593,56.3772139 28.104,56.2891238 C22.1484444,52.0810377 18.5928889,45.2004895 18.5928889,37.8842526 C18.5928889,25.4742673 28.6444444,15.3796221 41,15.3796221 C53.3555556,15.3796221 63.4071111,25.4742673 63.4071111,37.8842526 C63.4071111,45.371908 59.72,52.3429271 53.5451852,56.5319667 C53.429037,56.6093431 53.3425185,56.7117181 53.2642963,56.8188546 C53.013037,57.0414606 52.8471111,57.3557279 52.8518519,57.7176114 L52.9194074,62.8839745 L73,62.8839745 L73,56.9319432 C73,56.274839 72.4702222,55.7427274 71.8148148,55.7427274 Z" mask="url(#mask-2)"/></g><circle id="Oval" cx="41.5" cy="41.5" r="38.5" fill-rule="nonzero" stroke="#2681D6" stroke-width="6"/></g></g></g></g></svg>