<svg xmlns="http://www.w3.org/2000/svg" xmlns:xlink="http://www.w3.org/1999/xlink" width="83" height="55" version="1.1" viewBox="0 0 83 55"><title>ohm</title><desc>Created with Sketch.</desc><g id="Page-1" fill="none" fill-rule="evenodd" stroke="none" stroke-width="1"><g id="Brand-2:-ohm-open" fill-rule="nonzero" transform="translate(-24.000000, -22.000000)"><g id="ohm" transform="translate(24.000000, 24.000000)"><path id="Shape" fill="#2681D6" stroke="#2681D6" stroke-width="3" d="M72.0509831,43.7981033 C71.3793928,43.7981033 70.8365341,44.3433535 70.8365341,45.0179024 L70.8365341,48.6772994 L55.0863448,48.6772994 L55.0559835,46.3645605 C61.8289657,41.5914869 65.8645798,33.8311256 65.8645798,25.4998984 C65.8645798,11.4392751 54.4742625,0 40.4753086,0 C26.4763548,0 15.0860375,11.4392751 15.0860375,25.4998984 C15.0860375,33.7896524 19.1143649,41.5866077 25.8642725,46.3560219 C25.8707496,46.3609011 25.8707496,47.1350668 25.8642725,48.6785192 L10.1140832,48.6785192 L10.1140832,45.0191222 C10.1140832,44.3445733 9.57122451,43.7993231 8.8996342,43.7993231 C8.2280439,43.7993231 7.68518519,44.3445733 7.68518519,45.0191222 L7.68518519,51.1181172 L28.2615949,51.1181172 L28.3308185,45.8229697 C28.3368907,45.3045551 28.0174906,44.8629879 27.5645011,44.6812378 C27.4843475,44.5592579 27.3871916,44.4482562 27.2608889,44.3579911 C21.1582826,40.0460016 17.5149355,32.9955633 17.5149355,25.4986786 C17.5149355,12.7822739 27.8146776,2.43837823 40.4753086,2.43837823 C53.1359396,2.43837823 63.4356818,12.7822739 63.4356818,25.4986786 C63.4356818,33.1712143 59.6575309,40.3143574 53.3302515,44.6068301 C53.2112355,44.686117 53.1225807,44.7910197 53.0424271,44.9008017 C52.7849639,45.1289041 52.614941,45.450931 52.6197988,45.8217499 L52.6890224,51.1156776 L73.2654321,51.1156776 L73.2654321,45.0166826 C73.2654321,44.3433535 72.7225734,43.7981033 72.0509831,43.7981033 Z"/><rect id="Rectangle" width="14.346" height="5.123" x="2.049" y="42.012" fill="#FFF"/><rect id="Rectangle" width="14.346" height="5.123" x="64.556" y="42.012" fill="#FFF"/><rect id="Rectangle" width="29.716" height="5.636" x="0" y="47.136" fill="#2681D6"/><rect id="Rectangle" width="31.765" height="5.636" x="51.235" y="47.136" fill="#2681D6"/></g></g></g></svg>